<svg id="Capa_1" data-name="Capa 1" xmlns="http://www.w3.org/2000/svg" viewBox="0 0 1005.88 323.34"><defs><style>.cls-1{fill:#6c309f;}.cls-2{fill:#fff;}.cls-3{fill:#0c0;}</style></defs><path class="cls-1" d="M967.38,36.32H186.58a31,31,0,0,0-6.17-17.79c-6.12-8.22-15.87-12.75-27.48-12.75h-3.69a9.73,9.73,0,0,0-4.24,1l-3.27,1.59a37.72,37.72,0,0,0-17,17.16c-3-2.38-6.14-4.63-9.39-6.73A113.54,113.54,0,0,0,66.88,1C55.55-.41,43.64-.31,29.4,1.26l-1.58.17-2.41.25h0a28.71,28.71,0,0,0-24,37.25l.75,2.37.13.42c1.49,4.71,3,9.58,4.92,14.62a120.5,120.5,0,0,0,10.2,21.38A83.14,83.14,0,0,0,46.9,106.11,105.83,105.83,0,0,0,83.52,118.7a113.32,113.32,0,0,0-17.09,21.44A121.11,121.11,0,0,0,127.48,315.9c12.7,4.71,23.64,7,35.3,7.4h.34l.7,0h.83c.45,0,.89,0,1.33,0H926.16a80,80,0,0,0,79.72-79.72V74.82A38.62,38.62,0,0,0,967.38,36.32Z" transform="translate(0)"/><path class="cls-2" d="M215.19,238.28l-.12-.12c-2.44-2.32-6-5.63-10.37-2.09l-6.85,4.8c-14.52,12.1-34.06,16.25-55.37,3.74-17.42-10.23-26.75-31.93-20.93-54.88,7.74-26.4,31.74-43.81,61.6-32.74a4.67,4.67,0,0,0,4.77-1.46,22.82,22.82,0,0,1,2.49-2.08c1.71-1.4,2.52-2.45,4.15-4,2.57-2.4.82-5.51-2.42-6.86-19.88-8.29-49.14-6.35-69.94,14.85A65.55,65.55,0,0,0,114.91,240c8.84,12.9,20.78,21.75,35.78,25.93,20.11,5.6,38.54,2,55.31-9.46.87-.6,2.74-2.4,5-2.4,3.92,0,6.5,5.58,3.38,7.93-6.48,4.88-15.78,10.1-23.58,12.5-3.27,1-9.54,0-12.86.62-3.79.72-8.82,4.41-12.73,4.39-19.17-.09-38.87-7.79-54.1-24.74-28.27-31.44-25.46-81.15,6.4-109.56A73.39,73.39,0,0,1,136.11,133c3.8-1.72,11.69.59,15.52-.65,6.43-2.08,8.57-5.19,12.45-5.84,18.87-3.12,35.86,3.84,48.94,15,1.94,1.66,1.44,4.3-.42,6.05l-1.8,1.78c-7.57,7.15-11.19,8.77-18.53,16.16-2.77,2.78-3.48,5.19-7.05,3.33a40.1,40.1,0,0,0-51.44,16.89c-8,14.49-3.21,35.42,9.32,45.9,8.53,7.14,20.78,9.38,32.2,6.76a42.82,42.82,0,0,0,22.21-11.7,3.41,3.41,0,0,0-.08-4.93l-3.52-3.22a6.56,6.56,0,0,0-8.51-.34,28.22,28.22,0,0,1-2.76,1.95,35.73,35.73,0,0,1-7.74,3.51,21.52,21.52,0,0,1-18-38.67c8.51-5.63,20.82-4.47,30.77,3.15,2.07,1.59,3.29,1.6,5.19-.17,8.35-7.78,16.84-15.42,25.27-23.12q9.9-9,19.77-18.11a4.41,4.41,0,0,0,.38-6.12c-16.43-19-37.61-30.61-64.63-31-6.54-.1-12.92,3.62-19.47,6.64C139.9,67,176.35,31.47,152.9,31.51c-5.3,2.57-6.77,9.39-8.66,13.52a161.25,161.25,0,0,0-8.06,36.75c-.4-.89-.8-1.78-1.22-2.66a104.6,104.6,0,0,0-8.66-15.05,89.1,89.1,0,0,0-24.89-23.68A87.71,87.71,0,0,0,63.83,26.5a137.7,137.7,0,0,0-31.63.33c-1.31.15-2.61.27-3.93.42a3,3,0,0,0-2.49,3.86c1.72,5.4,3.36,10.82,5.35,16.12a95,95,0,0,0,8,16.84,57.42,57.42,0,0,0,20.53,19.7c10.49,6,21.88,9,33.81,10.28,8.2.86,16.44,1.32,24.62,2.55a90.28,90.28,0,0,1,18.38,4.83,145.74,145.74,0,0,0,3.34,18.41c-6.14.11-13.31-.36-17.26,1.74-29,15.46-46.45,44.11-47.73,77.68a94.5,94.5,0,0,0,61.57,92.5c9.58,3.55,18.14,5.6,28.1,5.85,5.38.13,11.29-5.47,16.59-6.26,6.34-.93,16.38,1.57,22.4-.61,13.77-5,23.46-12.18,33.53-23.17a6.66,6.66,0,0,0-.34-9.38Z" transform="translate(0)"/><path class="cls-2" d="M250.37,158.59H283.8V245a25.06,25.06,0,0,0,1.68,9.53,18.87,18.87,0,0,0,4.76,6.91,20.07,20.07,0,0,0,7.47,4.2,35,35,0,0,0,19.61,0,20.23,20.23,0,0,0,7.47-4.2,18.87,18.87,0,0,0,4.76-6.91,25.06,25.06,0,0,0,1.68-9.53V158.59h33.42V245a54.22,54.22,0,0,1-4.06,21.24,48.24,48.24,0,0,1-11.48,16.67,51.85,51.85,0,0,1-18,10.88,67.68,67.68,0,0,1-23.44,3.87A68.65,68.65,0,0,1,284,293.74,52.25,52.25,0,0,1,266,282.86a48.12,48.12,0,0,1-11.54-16.67A54.4,54.4,0,0,1,250.37,245Z" transform="translate(0)"/><path class="cls-2" d="M381.85,158.46h34V297.61h-34Z" transform="translate(0)"/><path class="cls-2" d="M432.91,158.46h49.42a89.29,89.29,0,0,1,29.7,4.66,62.39,62.39,0,0,1,22.62,13.55,59.72,59.72,0,0,1,14.45,21.76q5.08,12.88,5.09,29.32a80.1,80.1,0,0,1-5.09,29.42,60.39,60.39,0,0,1-14.45,21.95A62.77,62.77,0,0,1,512,292.86a87.5,87.5,0,0,1-29.7,4.75H432.91Zm48.09,110a45.38,45.38,0,0,0,15.87-2.61,31.24,31.24,0,0,0,11.93-7.75,34.14,34.14,0,0,0,7.51-12.73,54.13,54.13,0,0,0,2.61-17.59,51.66,51.66,0,0,0-2.7-17.49,34.33,34.33,0,0,0-7.65-12.54,31.44,31.44,0,0,0-11.93-7.56A45.86,45.86,0,0,0,481,187.64H466.93v80.79Z" transform="translate(0)"/><path class="cls-2" d="M641.1,268.43H597.76l-8.46,29.18h-35l47.24-139.15h35.83l47.33,139.15H649.65Zm-21.77-78.22c-.57,2.91-1.2,5.8-1.9,8.65q-.85,3.62-1.85,7.75t-2,7.46l-8,27.08h27.47l-7.79-27.08c-.64-2.22-1.28-4.71-2-7.46s-1.25-5.34-1.76-7.75c-.7-2.85-1.33-5.74-1.9-8.65Z" transform="translate(0)"/><path class="cls-2" d="M701.64,158.46h49.43a89.33,89.33,0,0,1,29.7,4.66,62.39,62.39,0,0,1,22.62,13.55,60,60,0,0,1,14.45,21.76,79.57,79.57,0,0,1,5.08,29.32,80.31,80.31,0,0,1-5.08,29.42,60.64,60.64,0,0,1-14.45,21.95,62.77,62.77,0,0,1-22.62,13.74,87.54,87.54,0,0,1-29.7,4.75H701.64Zm48.1,110a45.38,45.38,0,0,0,15.87-2.61,31.31,31.31,0,0,0,11.93-7.75,34.26,34.26,0,0,0,7.5-12.73,53.85,53.85,0,0,0,2.62-17.59A51.41,51.41,0,0,0,785,210.26a34.33,34.33,0,0,0-7.65-12.54,31.37,31.37,0,0,0-11.93-7.56,45.84,45.84,0,0,0-15.63-2.52H735.67v80.79Z" transform="translate(0)"/><path class="cls-2" d="M840,227.27a69.79,69.79,0,0,1,9.18-34.94,64.64,64.64,0,0,1,10.7-13.86A67.58,67.58,0,0,1,874,167.82,70.12,70.12,0,0,1,891,161a79.16,79.16,0,0,1,38.61,0,69.31,69.31,0,0,1,17,6.84,68.05,68.05,0,0,1,14.09,10.65,65.51,65.51,0,0,1,10.75,13.86,68.94,68.94,0,0,1,6.84,16.49,70.32,70.32,0,0,1,2.38,18.45,72,72,0,0,1-5.28,27.64,68.63,68.63,0,0,1-14.64,22.36,67.64,67.64,0,0,1-22.27,14.92,75.79,75.79,0,0,1-56.29,0,67.64,67.64,0,0,1-22.27-14.92,68.63,68.63,0,0,1-14.64-22.36A72,72,0,0,1,840,227.27Zm34,0a43.93,43.93,0,0,0,2.85,15.94A40,40,0,0,0,884.55,256a36.13,36.13,0,0,0,11.52,8.45,34.33,34.33,0,0,0,28.38,0A36,36,0,0,0,936,256a40,40,0,0,0,7.76-12.76,43.93,43.93,0,0,0,2.85-15.94,40.6,40.6,0,0,0-2.85-15.33A38,38,0,0,0,936,199.73a35.87,35.87,0,0,0-11.52-8.08,35.71,35.71,0,0,0-28.38,0,36,36,0,0,0-11.52,8.08,38,38,0,0,0-7.76,12.21A40.6,40.6,0,0,0,873.94,227.27Z" transform="translate(0)"/><path class="cls-3" d="M256.16,62.91h18.6l10.18,29.55c.38,1.11.78,2.34,1.19,3.68s.8,2.6,1.15,3.77c.38,1.37.78,2.75,1.2,4.12h.19l1.14-4.12c.35-1.17.74-2.43,1.15-3.77s.81-2.57,1.2-3.68l10.18-29.55H321l5.65,70H309.51l-2.15-31.5c-.1-1.34-.15-2.71-.17-4.09s0-2.65,0-3.8c0-1.34.07-2.63.14-3.87h-.19c-.48,1.4-.94,2.8-1.39,4.2-.38,1.21-.8,2.5-1.27,3.85l-1.26,3.71-7.36,20.22H281.21l-7.36-20.22c-.39-1.12-.81-2.35-1.27-3.71s-.88-2.64-1.27-3.85c-.44-1.4-.89-2.8-1.34-4.2h-.23c.06,1.24.11,2.53.14,3.87,0,1.15,0,2.41,0,3.8s-.07,2.75-.16,4.09l-2.16,31.5H250.37Z" transform="translate(0)"/><path class="cls-3" d="M374.24,118.22h-21.8l-4.25,14.68H330.6l23.76-70h18l23.81,70H378.55ZM363.3,78.88q-.44,2.2-1,4.35l-.93,3.9c-.34,1.38-.66,2.63-1,3.75l-4,13.62h13.82l-3.92-13.62c-.32-1.12-.65-2.37-1-3.75s-.63-2.69-.89-3.9c-.35-1.43-.67-2.88-.95-4.35Z" transform="translate(0)"/><path class="cls-3" d="M400.59,62.91H418l19.36,32.7c.67,1.15,1.35,2.42,2.05,3.8s1.34,2.69,1.92,3.9q1,2.14,1.91,4.25h.19c-.13-1.43-.26-2.87-.38-4.3q-.15-1.82-.27-3.9t-.12-3.75V62.91h17.12v70H442.52L423,100.3c-.7-1.15-1.39-2.42-2.08-3.8s-1.31-2.69-1.88-3.9q-1-2.1-1.92-4.26h-.19c.13,1.47.26,2.92.38,4.36q.15,1.81.27,3.87c.08,1.37.12,2.61.12,3.73v32.6H400.59Z" transform="translate(0)"/><path class="cls-3" d="M464.81,122.14l27-38.29c.77-1.08,1.48-2,2.13-2.8s1.22-1.44,1.7-2,1.1-1.13,1.57-1.58V77.3c-.44.07-1,.11-1.53.15-.95.09-2.24.14-3.87.14H466.05V62.91h52.88V73.48L491.82,112c-.76,1.09-1.47,2-2.13,2.8s-1.22,1.44-1.69,2-1.1,1.13-1.58,1.58v.19c.45,0,1-.08,1.53-.14l1.7-.1c.65,0,1.37,0,2.17,0h27.63V132.9H464.81Z" transform="translate(0)"/><path class="cls-3" d="M566.83,118.22H545l-4.26,14.68H523.18l23.76-70h18l23.81,70H571.13Zm-11-39.34c-.29,1.47-.6,2.92-1,4.35-.29,1.21-.6,2.51-.94,3.9s-.66,2.63-1,3.75l-4,13.62h13.81l-3.92-13.62c-.32-1.12-.64-2.37-1-3.75s-.63-2.69-.88-3.9q-.53-2.15-1-4.35Z" transform="translate(0)"/><path class="cls-3" d="M593.18,62.91h17.35l19.36,32.7c.67,1.15,1.36,2.42,2.06,3.8s1.34,2.69,1.91,3.9q1,2.14,1.91,4.25H636c-.12-1.43-.25-2.87-.38-4.3-.09-1.21-.18-2.51-.26-3.9s-.12-2.63-.12-3.75V62.91h17.11v70H635.1l-19.5-32.6c-.7-1.15-1.4-2.42-2.08-3.8s-1.32-2.69-1.89-3.9q-1-2.1-1.91-4.26h-.19c.12,1.47.25,2.92.38,4.36.1,1.21.18,2.5.26,3.87s.12,2.61.12,3.73v32.6H593.18Z" transform="translate(0)"/><path class="cls-3" d="M700.37,118.22h-21.8l-4.26,14.68H656.72l23.76-70h18l23.81,70H704.67Zm-11-39.34q-.43,2.2-1,4.35-.42,1.81-.93,3.9c-.33,1.38-.66,2.63-1,3.75l-4,13.62h13.81l-3.92-13.62c-.32-1.12-.64-2.37-1-3.75s-.63-2.69-.88-3.9q-.52-2.15-1-4.35Z" transform="translate(0)"/><path class="cls-3" d="M733.81,110.62a31,31,0,0,0,4.9,3.51c.74.43,1.54.87,2.41,1.3a20.55,20.55,0,0,0,2.75,1.13,24.59,24.59,0,0,0,3,.78,15.48,15.48,0,0,0,3.14.31,12.41,12.41,0,0,0,2.57-.28,7.61,7.61,0,0,0,2.29-.9,4.67,4.67,0,0,0,2.26-4.23,3.47,3.47,0,0,0-1.32-2.68,16.71,16.71,0,0,0-3.46-2.25c-1.44-.72-3.06-1.44-4.88-2.17s-3.68-1.52-5.59-2.4a51.31,51.31,0,0,1-5.6-3,24,24,0,0,1-4.87-4,18.17,18.17,0,0,1-3.47-5.25,16.76,16.76,0,0,1-1.32-6.86,19.31,19.31,0,0,1,1.85-8.53,19.69,19.69,0,0,1,5.09-6.54,23.19,23.19,0,0,1,7.6-4.21,29.32,29.32,0,0,1,9.41-1.48,37.71,37.71,0,0,1,5.13.33,33.59,33.59,0,0,1,4.44.87,34.11,34.11,0,0,1,3.74,1.25c1.14.46,2.16.93,3,1.39a24.34,24.34,0,0,1,5.41,3.84l-7,13.54a28.58,28.58,0,0,0-4.44-3,35,35,0,0,0-4.78-2.06,17.35,17.35,0,0,0-5.76-.94,11.21,11.21,0,0,0-2.54.3,7.21,7.21,0,0,0-2.31,1,5.44,5.44,0,0,0-1.67,1.64,4.35,4.35,0,0,0-.64,2.42,3.67,3.67,0,0,0,1.31,2.8A14.9,14.9,0,0,0,748,88.5c1.42.69,3,1.38,4.88,2.06s3.69,1.44,5.59,2.28A59.24,59.24,0,0,1,764,95.73a22.28,22.28,0,0,1,4.88,3.86,18.23,18.23,0,0,1,3.44,5.25,17.36,17.36,0,0,1,1.32,7,20.9,20.9,0,0,1-1.57,8.06,19,19,0,0,1-4.62,6.68,22.79,22.79,0,0,1-7.49,4.58,28.16,28.16,0,0,1-10.17,1.71,35.73,35.73,0,0,1-5.64-.42,40.18,40.18,0,0,1-4.95-1.08,34.42,34.42,0,0,1-4.25-1.53,31.81,31.81,0,0,1-3.51-1.78,28.89,28.89,0,0,1-6.38-4.85Z" transform="translate(0)"/><path class="cls-3" d="M811.41,62.91h24.86a45,45,0,0,1,14.94,2.34,31.54,31.54,0,0,1,11.37,6.82A30.07,30.07,0,0,1,869.85,83a39.84,39.84,0,0,1,2.56,14.75,40.19,40.19,0,0,1-2.56,14.8,30.38,30.38,0,0,1-7.27,11,31.58,31.58,0,0,1-11.37,6.91,44.18,44.18,0,0,1-14.94,2.39H811.41Zm24.19,55.31a22.72,22.72,0,0,0,8-1.31,15.77,15.77,0,0,0,6-3.9,17.29,17.29,0,0,0,3.78-6.4,27.39,27.39,0,0,0,1.31-8.85A25.81,25.81,0,0,0,853.31,89a17.16,17.16,0,0,0-3.85-6.31,15.74,15.74,0,0,0-6-3.8,22.9,22.9,0,0,0-7.86-1.27h-7.08v40.63Z" transform="translate(0)"/><path class="cls-3" d="M881,62.91h43.89V77.59H898.14V90.31H919.5V105H898.14v13.24h28.11V132.9H881Z" transform="translate(0)"/><path class="cls-3" d="M935.14,62.91h17.12v55.31h28.59V132.9H935.14Z" transform="translate(0)"/></svg>